<?xml version="1.0" encoding="utf-8"?>
<!-- Generator: Adobe Illustrator 19.0.0, SVG Export Plug-In . SVG Version: 6.00 Build 0)  -->
<svg version="1.1" id="Layer_1" xmlns="http://www.w3.org/2000/svg" xmlns:xlink="http://www.w3.org/1999/xlink" x="0px" y="0px"
	 viewBox="0 0 946.9 228.4" style="enable-background:new 0 0 946.9 228.4;" xml:space="preserve">
<style type="text/css">
	.st0{fill:none;stroke:#FFFFFF;stroke-width:3;stroke-miterlimit:10;}
</style>
<g id="XMLID_1_">
	<path id="XMLID_68_" class="st0" d="M28.4,100V50.1h30.1v6H35.4v15h20.5V77H35.4v23H28.4z"/>
	<path id="XMLID_70_" class="st0" d="M75.1,61.6c2.7,0,5,0.3,6.8,1c1.8,0.7,3.3,1.7,4.5,3c1.1,1.3,1.9,2.8,2.4,4.5
		c0.5,1.8,0.7,3.7,0.7,5.8v23.4c-0.6,0.1-1.4,0.2-2.4,0.4c-1,0.2-2.2,0.3-3.5,0.5s-2.7,0.3-4.2,0.4c-1.5,0.1-3,0.2-4.5,0.2
		c-2.1,0-4.1-0.2-5.8-0.6c-1.8-0.4-3.3-1.1-4.6-2.1c-1.3-0.9-2.3-2.2-3-3.7c-0.7-1.5-1.1-3.4-1.1-5.5c0-2.1,0.4-3.8,1.3-5.3
		c0.8-1.5,2-2.7,3.4-3.6c1.4-0.9,3.1-1.6,5-2c1.9-0.4,3.9-0.6,6-0.6c0.7,0,1.4,0,2.1,0.1c0.7,0.1,1.4,0.2,2.1,0.3
		c0.6,0.1,1.2,0.2,1.7,0.3c0.5,0.1,0.8,0.2,1,0.2v-1.9c0-1.1-0.1-2.2-0.4-3.3c-0.2-1.1-0.7-2-1.3-2.9c-0.6-0.8-1.5-1.5-2.6-2
		c-1.1-0.5-2.5-0.8-4.2-0.8c-2.2,0-4.1,0.2-5.8,0.5c-1.7,0.3-2.9,0.6-3.7,1l-0.8-5.5c0.9-0.4,2.3-0.8,4.3-1.1
		C70.5,61.8,72.7,61.6,75.1,61.6z M75.6,95.2c1.6,0,3,0,4.2-0.1c1.2-0.1,2.2-0.2,3.1-0.4V83.5c-0.5-0.2-1.3-0.4-2.3-0.6
		c-1.1-0.2-2.4-0.3-3.9-0.3c-1,0-2.1,0.1-3.2,0.2c-1.1,0.1-2.2,0.4-3.1,0.9c-0.9,0.5-1.7,1.1-2.3,1.9c-0.6,0.8-0.9,1.8-0.9,3.1
		c0,2.4,0.8,4.1,2.3,5C70.9,94.7,73,95.2,75.6,95.2z"/>
	<path id="XMLID_73_" class="st0" d="M116.8,100.9c-3,0-5.7-0.5-8-1.4c-2.3-1-4.2-2.3-5.8-4c-1.6-1.7-2.7-3.8-3.5-6.2
		c-0.8-2.4-1.2-5-1.2-7.9s0.4-5.5,1.3-7.9c0.8-2.4,2-4.5,3.6-6.2c1.5-1.8,3.4-3.1,5.7-4.1c2.2-1,4.7-1.5,7.5-1.5
		c1.7,0,3.4,0.1,5,0.4c1.7,0.3,3.3,0.7,4.8,1.4l-1.5,5.7c-1-0.5-2.2-0.9-3.5-1.2c-1.3-0.3-2.7-0.4-4.2-0.4c-3.7,0-6.6,1.2-8.6,3.5
		c-2,2.4-3,5.8-3,10.3c0,2,0.2,3.9,0.7,5.5c0.5,1.7,1.2,3.1,2.2,4.3c1,1.2,2.2,2.1,3.8,2.8c1.5,0.6,3.4,1,5.6,1
		c1.8,0,3.4-0.2,4.8-0.5c1.4-0.3,2.6-0.7,3.4-1.1l0.9,5.6c-0.4,0.2-0.9,0.5-1.7,0.7c-0.7,0.2-1.5,0.4-2.4,0.6
		c-0.9,0.2-1.9,0.3-2.9,0.4C118.8,100.8,117.8,100.9,116.8,100.9z"/>
	<path id="XMLID_75_" class="st0" d="M163.8,98.9c-1.5,0.4-3.6,0.8-6.1,1.2s-5.4,0.6-8.7,0.6c-2.9,0-5.3-0.4-7.3-1.3
		c-2-0.8-3.6-2-4.8-3.6c-1.2-1.5-2.1-3.3-2.6-5.4c-0.5-2.1-0.8-4.4-0.8-6.9v-21h6.7v19.6c0,4.6,0.7,7.8,2.2,9.8c1.4,2,3.9,3,7.3,3
		c0.7,0,1.5,0,2.2-0.1c0.8,0,1.5-0.1,2.2-0.2c0.7-0.1,1.3-0.1,1.8-0.2c0.6-0.1,0.9-0.2,1.2-0.3V62.6h6.7V98.9z"/>
	<path id="XMLID_77_" class="st0" d="M186.6,100.7c-4.1-0.1-7.1-1-8.8-2.7c-1.7-1.7-2.6-4.3-2.6-7.8V45.3l6.7-1.2v45
		c0,1.1,0.1,2,0.3,2.7c0.2,0.7,0.5,1.3,0.9,1.7c0.4,0.4,1,0.8,1.7,1c0.7,0.2,1.6,0.4,2.7,0.5L186.6,100.7z"/>
	<path id="XMLID_79_" class="st0" d="M201.3,62.6h14.2v5.6h-14.2v17.3c0,1.9,0.1,3.4,0.4,4.6s0.7,2.2,1.3,2.9
		c0.6,0.7,1.3,1.2,2.2,1.5c0.9,0.3,1.9,0.4,3,0.4c2,0,3.6-0.2,4.9-0.7c1.2-0.5,2.1-0.8,2.6-1l1.3,5.5c-0.7,0.3-1.8,0.8-3.5,1.3
		c-1.7,0.5-3.6,0.8-5.8,0.8c-2.5,0-4.6-0.3-6.3-1c-1.7-0.6-3-1.6-4-2.9c-1-1.3-1.7-2.9-2.1-4.8c-0.4-1.9-0.6-4.1-0.6-6.6V52.1
		l6.7-1.2V62.6z"/>
	<path id="XMLID_81_" class="st0" d="M219.6,107c0.5,0.2,1.2,0.5,2.1,0.7c0.8,0.2,1.7,0.3,2.5,0.3c2.6,0,4.7-0.6,6.2-1.8
		c1.5-1.2,2.8-3.1,4-5.7c-3-5.8-5.8-11.9-8.5-18.3c-2.6-6.5-4.8-13-6.5-19.6h7.2c0.5,2.2,1.2,4.5,1.9,7c0.7,2.5,1.6,5.1,2.5,7.7
		c0.9,2.6,1.9,5.3,3,7.9c1.1,2.6,2.2,5.2,3.3,7.6c1.8-5,3.4-10,4.8-15c1.3-4.9,2.6-10,3.8-15.3h6.9c-1.7,7.1-3.6,13.8-5.8,20.3
		c-2.1,6.5-4.4,12.6-6.8,18.3c-1,2.2-2,4-3,5.6c-1,1.6-2.2,2.8-3.4,3.9c-1.2,1-2.7,1.8-4.2,2.2c-1.6,0.5-3.3,0.7-5.3,0.7
		c-0.5,0-1.1,0-1.7-0.1c-0.6-0.1-1.1-0.2-1.7-0.3c-0.6-0.1-1.1-0.3-1.5-0.4c-0.5-0.1-0.8-0.3-1-0.4L219.6,107z"/>
	<path id="XMLID_83_" class="st0" d="M274.8,75c0-4.3,0.6-8,1.9-11.3c1.3-3.3,3-6,5.2-8.2c2.2-2.2,4.7-3.8,7.6-4.9
		c2.9-1.1,6-1.7,9.3-1.7c3.2,0,6.3,0.6,9.1,1.7c2.9,1.1,5.4,2.7,7.5,4.9c2.2,2.2,3.9,4.9,5.1,8.2c1.3,3.3,1.9,7,1.9,11.3
		c0,4.3-0.6,8-1.9,11.3c-1.3,3.3-3,6-5.1,8.2c-2.2,2.2-4.7,3.8-7.5,4.9c-2.9,1.1-5.9,1.7-9.1,1.7c-3.3,0-6.3-0.6-9.3-1.7
		c-2.9-1.1-5.4-2.7-7.6-4.9c-2.2-2.2-3.9-4.9-5.2-8.2C275.4,83.1,274.8,79.3,274.8,75z M282.1,75c0,3,0.4,5.8,1.2,8.2
		c0.8,2.5,1.9,4.6,3.3,6.3c1.4,1.7,3.1,3.1,5.2,4c2,0.9,4.3,1.4,6.9,1.4c2.5,0,4.8-0.5,6.8-1.4c2-0.9,3.7-2.3,5.1-4
		c1.4-1.7,2.5-3.8,3.3-6.3c0.8-2.5,1.2-5.2,1.2-8.2s-0.4-5.8-1.2-8.2c-0.8-2.5-1.9-4.6-3.3-6.3c-1.4-1.7-3.1-3.1-5.1-4
		c-2-0.9-4.3-1.4-6.8-1.4c-2.5,0-4.8,0.5-6.9,1.4c-2,0.9-3.8,2.3-5.2,4c-1.4,1.7-2.5,3.8-3.3,6.3C282.5,69.2,282.1,72,282.1,75z"/>
	<path id="XMLID_86_" class="st0" d="M347,44.1c2,0,3.7,0.1,5.1,0.4c1.4,0.3,2.4,0.6,3,0.8l-1.2,5.8c-0.6-0.3-1.4-0.6-2.4-0.8
		c-1.1-0.3-2.4-0.4-3.9-0.4c-3.1,0-5.3,0.9-6.6,2.6c-1.2,1.7-1.9,4-1.9,6.9v3.2h14.4v5.6h-14.4V100h-6.7V59.2
		c0-4.8,1.2-8.5,3.5-11.1C338.3,45.4,342,44.1,347,44.1z"/>
	<path id="XMLID_88_" class="st0" d="M377.2,50.1h7V100h-7V50.1z"/>
	<path id="XMLID_90_" class="st0" d="M396.2,63.6c1.5-0.4,3.6-0.8,6.1-1.2c2.5-0.4,5.5-0.6,8.8-0.6c3,0,5.4,0.4,7.4,1.3
		c2,0.8,3.5,2,4.7,3.5c1.2,1.5,2,3.3,2.5,5.4c0.5,2.1,0.7,4.4,0.7,7v21h-6.7V80.4c0-2.3-0.2-4.3-0.5-5.9c-0.3-1.6-0.8-3-1.5-4
		c-0.7-1-1.7-1.7-2.9-2.2c-1.2-0.5-2.7-0.7-4.5-0.7c-0.7,0-1.5,0-2.2,0.1c-0.8,0-1.5,0.1-2.2,0.2c-0.7,0.1-1.3,0.2-1.9,0.3
		c-0.6,0.1-0.9,0.2-1.2,0.2V100h-6.7V63.6z"/>
	<path id="XMLID_92_" class="st0" d="M452.1,44.1c2,0,3.7,0.1,5.1,0.4c1.4,0.3,2.4,0.6,3,0.8l-1.2,5.8c-0.6-0.3-1.4-0.6-2.4-0.8
		c-1.1-0.3-2.4-0.4-3.9-0.4c-3.1,0-5.3,0.9-6.6,2.6c-1.2,1.7-1.9,4-1.9,6.9v3.2h14.4v5.6h-14.4V100h-6.7V59.2
		c0-4.8,1.2-8.5,3.5-11.1C443.4,45.4,447.1,44.1,452.1,44.1z"/>
	<path id="XMLID_94_" class="st0" d="M498.3,81.3c0,3-0.4,5.7-1.3,8.1c-0.9,2.4-2.1,4.5-3.6,6.2c-1.6,1.7-3.4,3.1-5.6,4
		c-2.2,0.9-4.5,1.4-7.1,1.4c-2.5,0-4.9-0.5-7.1-1.4c-2.2-0.9-4-2.3-5.6-4s-2.8-3.8-3.6-6.2c-0.9-2.4-1.3-5.1-1.3-8.1
		c0-2.9,0.4-5.6,1.3-8c0.9-2.4,2.1-4.5,3.6-6.2s3.4-3.1,5.6-4c2.2-0.9,4.5-1.4,7.1-1.4c2.5,0,4.9,0.5,7.1,1.4s4,2.3,5.6,4
		c1.6,1.7,2.8,3.8,3.6,6.2C497.9,75.7,498.3,78.4,498.3,81.3z M491.4,81.3c0-4.2-0.9-7.6-2.8-10c-1.9-2.5-4.5-3.7-7.7-3.7
		c-3.3,0-5.8,1.2-7.7,3.7c-1.9,2.5-2.8,5.8-2.8,10c0,4.2,0.9,7.6,2.8,10c1.9,2.5,4.5,3.7,7.7,3.7c3.3,0,5.8-1.2,7.7-3.7
		C490.4,88.9,491.4,85.5,491.4,81.3z"/>
	<path id="XMLID_97_" class="st0" d="M521.6,61.8c0.6,0,1.2,0,2,0.1c0.7,0.1,1.5,0.2,2.2,0.3c0.7,0.1,1.4,0.2,2,0.4
		c0.6,0.1,1,0.2,1.3,0.3l-1.2,5.8c-0.5-0.2-1.4-0.4-2.6-0.7c-1.2-0.3-2.8-0.4-4.7-0.4c-1.2,0-2.5,0.1-3.7,0.4
		c-1.2,0.3-2,0.4-2.4,0.5V100h-6.7V64.1c1.6-0.6,3.6-1.1,5.9-1.6C516,62,518.7,61.8,521.6,61.8z"/>
	<path id="XMLID_99_" class="st0" d="M535.6,63.6c1.5-0.4,3.6-0.8,6.1-1.2c2.5-0.4,5.4-0.6,8.7-0.6c2.4,0,4.4,0.3,6,1
		c1.6,0.6,3,1.6,4.1,2.8c0.3-0.2,0.9-0.6,1.6-1c0.7-0.4,1.6-0.9,2.7-1.3c1.1-0.4,2.2-0.8,3.5-1.1c1.3-0.3,2.7-0.5,4.2-0.5
		c2.9,0,5.2,0.4,7.1,1.3c1.8,0.8,3.3,2,4.3,3.6c1,1.5,1.7,3.4,2.1,5.5c0.4,2.1,0.5,4.4,0.5,6.9v21h-6.7V80.4c0-2.2-0.1-4.1-0.3-5.7
		c-0.2-1.6-0.6-2.9-1.2-4c-0.6-1.1-1.4-1.8-2.4-2.3c-1-0.5-2.4-0.8-4-0.8c-2.3,0-4.1,0.3-5.6,0.9c-1.5,0.6-2.5,1.1-3,1.6
		c0.4,1.2,0.7,2.6,0.9,4.1c0.2,1.5,0.3,3,0.3,4.7v21h-6.7V80.4c0-2.2-0.1-4.1-0.4-5.7c-0.2-1.6-0.7-2.9-1.3-4
		c-0.6-1.1-1.4-1.8-2.4-2.3c-1-0.5-2.3-0.8-3.9-0.8c-0.7,0-1.4,0-2.2,0.1c-0.8,0-1.5,0.1-2.2,0.2c-0.7,0.1-1.3,0.2-1.9,0.3
		c-0.6,0.1-1,0.2-1.2,0.2V100h-6.7V63.6z"/>
	<path id="XMLID_101_" class="st0" d="M609.7,61.6c2.7,0,5,0.3,6.8,1c1.8,0.7,3.3,1.7,4.5,3c1.1,1.3,1.9,2.8,2.4,4.5
		c0.5,1.8,0.7,3.7,0.7,5.8v23.4c-0.6,0.1-1.4,0.2-2.4,0.4c-1,0.2-2.2,0.3-3.5,0.5c-1.3,0.1-2.7,0.3-4.2,0.4c-1.5,0.1-3,0.2-4.5,0.2
		c-2.1,0-4.1-0.2-5.8-0.6c-1.8-0.4-3.3-1.1-4.6-2.1s-2.3-2.2-3-3.7c-0.7-1.5-1.1-3.4-1.1-5.5c0-2.1,0.4-3.8,1.3-5.3
		c0.8-1.5,2-2.7,3.4-3.6c1.4-0.9,3.1-1.6,5-2c1.9-0.4,3.9-0.6,6-0.6c0.7,0,1.4,0,2.1,0.1c0.7,0.1,1.4,0.2,2.1,0.3
		c0.6,0.1,1.2,0.2,1.7,0.3c0.5,0.1,0.8,0.2,1,0.2v-1.9c0-1.1-0.1-2.2-0.4-3.3s-0.7-2-1.3-2.9c-0.6-0.8-1.5-1.5-2.6-2
		s-2.5-0.8-4.2-0.8c-2.2,0-4.1,0.2-5.8,0.5c-1.7,0.3-2.9,0.6-3.7,1l-0.8-5.5c0.9-0.4,2.3-0.8,4.3-1.1
		C605.1,61.8,607.3,61.6,609.7,61.6z M610.2,95.2c1.6,0,3,0,4.2-0.1c1.2-0.1,2.2-0.2,3.1-0.4V83.5c-0.5-0.2-1.3-0.4-2.3-0.6
		c-1.1-0.2-2.4-0.3-3.9-0.3c-1,0-2.1,0.1-3.2,0.2c-1.1,0.1-2.2,0.4-3.1,0.9c-0.9,0.5-1.7,1.1-2.3,1.9c-0.6,0.8-0.9,1.8-0.9,3.1
		c0,2.4,0.8,4.1,2.3,5C605.5,94.7,607.6,95.2,610.2,95.2z"/>
	<path id="XMLID_104_" class="st0" d="M641.4,62.6h14.2v5.6h-14.2v17.3c0,1.9,0.1,3.4,0.4,4.6s0.7,2.2,1.3,2.9
		c0.6,0.7,1.3,1.2,2.2,1.5s1.9,0.4,3,0.4c2,0,3.6-0.2,4.9-0.7c1.2-0.5,2.1-0.8,2.6-1l1.3,5.5c-0.7,0.3-1.8,0.8-3.5,1.3
		c-1.7,0.5-3.6,0.8-5.8,0.8c-2.5,0-4.6-0.3-6.3-1c-1.7-0.6-3-1.6-4-2.9c-1-1.3-1.7-2.9-2.1-4.8c-0.4-1.9-0.6-4.1-0.6-6.6V52.1
		l6.7-1.2V62.6z"/>
	<path id="XMLID_106_" class="st0" d="M667.4,55.8c-1.2,0-2.2-0.4-3.1-1.2s-1.3-1.9-1.3-3.2c0-1.3,0.4-2.4,1.3-3.2s1.9-1.2,3.1-1.2
		c1.2,0,2.2,0.4,3.1,1.2s1.3,1.9,1.3,3.2c0,1.3-0.4,2.4-1.3,3.2S668.6,55.8,667.4,55.8z M670.8,100h-6.7V62.6h6.7V100z"/>
	<path id="XMLID_109_" class="st0" d="M715.4,81.3c0,3-0.4,5.7-1.3,8.1c-0.9,2.4-2.1,4.5-3.6,6.2c-1.6,1.7-3.4,3.1-5.6,4
		c-2.2,0.9-4.5,1.4-7.1,1.4c-2.5,0-4.9-0.5-7.1-1.4c-2.2-0.9-4-2.3-5.6-4s-2.8-3.8-3.6-6.2c-0.9-2.4-1.3-5.1-1.3-8.1
		c0-2.9,0.4-5.6,1.3-8c0.9-2.4,2.1-4.5,3.6-6.2s3.4-3.1,5.6-4c2.2-0.9,4.5-1.4,7.1-1.4c2.5,0,4.9,0.5,7.1,1.4s4,2.3,5.6,4
		c1.6,1.7,2.8,3.8,3.6,6.2C714.9,75.7,715.4,78.4,715.4,81.3z M708.4,81.3c0-4.2-0.9-7.6-2.8-10c-1.9-2.5-4.5-3.7-7.7-3.7
		c-3.3,0-5.8,1.2-7.7,3.7c-1.9,2.5-2.8,5.8-2.8,10c0,4.2,0.9,7.6,2.8,10c1.9,2.5,4.5,3.7,7.7,3.7c3.3,0,5.8-1.2,7.7-3.7
		C707.4,88.9,708.4,85.5,708.4,81.3z"/>
	<path id="XMLID_112_" class="st0" d="M724.8,63.6c1.5-0.4,3.6-0.8,6.1-1.2c2.5-0.4,5.5-0.6,8.8-0.6c3,0,5.4,0.4,7.4,1.3
		c2,0.8,3.5,2,4.7,3.5c1.2,1.5,2,3.3,2.5,5.4c0.5,2.1,0.7,4.4,0.7,7v21h-6.7V80.4c0-2.3-0.2-4.3-0.5-5.9c-0.3-1.6-0.8-3-1.5-4
		c-0.7-1-1.7-1.7-2.9-2.2c-1.2-0.5-2.7-0.7-4.5-0.7c-0.7,0-1.5,0-2.2,0.1c-0.8,0-1.5,0.1-2.2,0.2c-0.7,0.1-1.3,0.2-1.9,0.3
		c-0.6,0.1-0.9,0.2-1.2,0.2V100h-6.7V63.6z"/>
	<path id="XMLID_114_" class="st0" d="M794.8,61.6c2.7,0,5,0.3,6.8,1c1.8,0.7,3.3,1.7,4.5,3c1.1,1.3,1.9,2.8,2.4,4.5
		c0.5,1.8,0.7,3.7,0.7,5.8v23.4c-0.6,0.1-1.4,0.2-2.4,0.4c-1,0.2-2.2,0.3-3.5,0.5c-1.3,0.1-2.7,0.3-4.2,0.4c-1.5,0.1-3,0.2-4.5,0.2
		c-2.1,0-4.1-0.2-5.8-0.6c-1.8-0.4-3.3-1.1-4.6-2.1s-2.3-2.2-3-3.7c-0.7-1.5-1.1-3.4-1.1-5.5c0-2.1,0.4-3.8,1.3-5.3
		c0.8-1.5,2-2.7,3.4-3.6c1.4-0.9,3.1-1.6,5-2c1.9-0.4,3.9-0.6,6-0.6c0.7,0,1.4,0,2.1,0.1c0.7,0.1,1.4,0.2,2.1,0.3
		c0.6,0.1,1.2,0.2,1.7,0.3c0.5,0.1,0.8,0.2,1,0.2v-1.9c0-1.1-0.1-2.2-0.4-3.3s-0.7-2-1.3-2.9c-0.6-0.8-1.5-1.5-2.6-2
		s-2.5-0.8-4.2-0.8c-2.2,0-4.1,0.2-5.8,0.5c-1.7,0.3-2.9,0.6-3.7,1l-0.8-5.5c0.9-0.4,2.3-0.8,4.3-1.1
		C790.3,61.8,792.5,61.6,794.8,61.6z M795.4,95.2c1.6,0,3,0,4.2-0.1c1.2-0.1,2.2-0.2,3.1-0.4V83.5c-0.5-0.2-1.3-0.4-2.3-0.6
		c-1.1-0.2-2.4-0.3-3.9-0.3c-1,0-2.1,0.1-3.2,0.2c-1.1,0.1-2.2,0.4-3.1,0.9c-0.9,0.5-1.7,1.1-2.3,1.9c-0.6,0.8-0.9,1.8-0.9,3.1
		c0,2.4,0.8,4.1,2.3,5C790.7,94.7,792.8,95.2,795.4,95.2z"/>
	<path id="XMLID_117_" class="st0" d="M820.3,63.6c1.5-0.4,3.6-0.8,6.1-1.2c2.5-0.4,5.5-0.6,8.8-0.6c3,0,5.4,0.4,7.4,1.3
		c2,0.8,3.5,2,4.7,3.5c1.2,1.5,2,3.3,2.5,5.4c0.5,2.1,0.7,4.4,0.7,7v21h-6.7V80.4c0-2.3-0.2-4.3-0.5-5.9c-0.3-1.6-0.8-3-1.5-4
		c-0.7-1-1.7-1.7-2.9-2.2c-1.2-0.5-2.7-0.7-4.5-0.7c-0.7,0-1.5,0-2.2,0.1c-0.8,0-1.5,0.1-2.2,0.2c-0.7,0.1-1.3,0.2-1.9,0.3
		c-0.6,0.1-0.9,0.2-1.2,0.2V100h-6.7V63.6z"/>
	<path id="XMLID_119_" class="st0" d="M885.8,45.3l6.7-1.2v54.8c-1.5,0.4-3.5,0.9-5.9,1.3c-2.4,0.4-5.2,0.6-8.3,0.6
		c-2.9,0-5.5-0.5-7.8-1.4c-2.3-0.9-4.3-2.2-5.9-3.9c-1.6-1.7-2.9-3.7-3.8-6.2c-0.9-2.4-1.3-5.1-1.3-8.2c0-2.9,0.4-5.5,1.1-7.9
		c0.7-2.4,1.8-4.5,3.3-6.2c1.4-1.7,3.2-3.1,5.3-4c2.1-1,4.5-1.4,7.2-1.4c2.2,0,4.1,0.3,5.7,0.9s2.9,1.1,3.7,1.7V45.3z M885.8,70.5
		c-0.8-0.7-2-1.3-3.5-1.9c-1.5-0.6-3.2-0.9-5-0.9c-1.9,0-3.6,0.3-4.9,1c-1.4,0.7-2.5,1.7-3.3,2.9c-0.9,1.2-1.5,2.7-1.9,4.4
		c-0.4,1.7-0.6,3.5-0.6,5.4c0,4.4,1.1,7.7,3.2,10.1c2.2,2.4,5,3.6,8.6,3.6c1.8,0,3.3-0.1,4.6-0.3c1.2-0.2,2.2-0.3,2.8-0.5V70.5z"/>
	<path id="XMLID_122_" class="st0" d="M49.9,187.5c-3.5,0-6.7-0.6-9.6-1.7c-2.9-1.2-5.4-2.8-7.4-5c-2.1-2.2-3.7-4.9-4.8-8.2
		c-1.1-3.2-1.7-6.9-1.7-11.1s0.6-7.9,1.9-11.1c1.3-3.2,3-6,5.1-8.2c2.2-2.2,4.7-3.9,7.6-5s6-1.7,9.2-1.7c2.1,0,3.9,0.1,5.6,0.4
		c1.7,0.3,3.1,0.6,4.3,1c1.2,0.4,2.2,0.8,3,1.2c0.8,0.4,1.3,0.7,1.6,0.9l-2,5.8c-0.4-0.3-1.1-0.6-1.9-0.9c-0.8-0.3-1.7-0.7-2.8-1
		c-1-0.3-2.2-0.6-3.4-0.8s-2.5-0.3-3.7-0.3c-2.6,0-5,0.5-7.1,1.4c-2.1,0.9-3.9,2.2-5.4,4c-1.5,1.7-2.6,3.8-3.4,6.3
		c-0.8,2.5-1.2,5.2-1.2,8.3c0,3,0.3,5.7,1,8.1c0.7,2.4,1.7,4.5,3.1,6.3c1.4,1.8,3.1,3.1,5.2,4.1c2.1,1,4.5,1.4,7.3,1.4
		c3.2,0,5.9-0.3,8-1c2.1-0.7,3.7-1.3,4.8-1.8l1.8,5.8c-0.3,0.2-0.9,0.5-1.8,0.9c-0.9,0.4-1.9,0.7-3.2,1c-1.3,0.3-2.8,0.6-4.5,0.9
		C53.8,187.4,51.9,187.5,49.9,187.5z"/>
	<path id="XMLID_124_" class="st0" d="M104.6,167.7c0,3-0.4,5.7-1.3,8.1c-0.9,2.4-2.1,4.5-3.6,6.2c-1.6,1.7-3.4,3.1-5.6,4
		c-2.2,0.9-4.5,1.4-7.1,1.4c-2.5,0-4.9-0.5-7.1-1.4c-2.2-0.9-4-2.3-5.6-4c-1.6-1.7-2.8-3.8-3.6-6.2c-0.9-2.4-1.3-5.1-1.3-8.1
		c0-2.9,0.4-5.6,1.3-8c0.9-2.4,2.1-4.5,3.6-6.2c1.6-1.7,3.4-3.1,5.6-4c2.2-0.9,4.5-1.4,7.1-1.4c2.5,0,4.9,0.5,7.1,1.4
		c2.2,0.9,4,2.3,5.6,4c1.6,1.7,2.8,3.8,3.6,6.2C104.2,162.1,104.6,164.8,104.6,167.7z M97.6,167.7c0-4.2-0.9-7.6-2.8-10
		c-1.9-2.5-4.5-3.7-7.7-3.7c-3.3,0-5.8,1.2-7.7,3.7c-1.9,2.5-2.8,5.8-2.8,10c0,4.2,0.9,7.6,2.8,10c1.9,2.5,4.5,3.7,7.7,3.7
		c3.3,0,5.8-1.2,7.7-3.7C96.7,175.3,97.6,171.9,97.6,167.7z"/>
	<path id="XMLID_127_" class="st0" d="M114,150c1.5-0.4,3.6-0.8,6.1-1.2c2.5-0.4,5.4-0.6,8.7-0.6c2.4,0,4.4,0.3,6,1
		c1.6,0.6,3,1.6,4.1,2.8c0.3-0.2,0.9-0.6,1.6-1c0.7-0.4,1.6-0.9,2.7-1.3c1.1-0.4,2.2-0.8,3.5-1.1c1.3-0.3,2.7-0.5,4.2-0.5
		c2.9,0,5.2,0.4,7.1,1.3c1.8,0.8,3.3,2,4.3,3.6c1,1.5,1.7,3.4,2.1,5.5c0.4,2.1,0.5,4.4,0.5,6.9v21h-6.7v-19.6c0-2.2-0.1-4.1-0.3-5.7
		s-0.6-2.9-1.2-4c-0.6-1.1-1.4-1.8-2.4-2.3c-1-0.5-2.4-0.8-4-0.8c-2.3,0-4.1,0.3-5.6,0.9c-1.5,0.6-2.5,1.1-3,1.6
		c0.4,1.2,0.7,2.6,0.9,4.1c0.2,1.5,0.3,3,0.3,4.7v21h-6.7v-19.6c0-2.2-0.1-4.1-0.4-5.7c-0.2-1.6-0.7-2.9-1.3-4
		c-0.6-1.1-1.4-1.8-2.4-2.3c-1-0.5-2.3-0.8-3.9-0.8c-0.7,0-1.4,0-2.2,0.1c-0.8,0-1.5,0.1-2.2,0.2c-0.7,0.1-1.3,0.2-1.9,0.3
		c-0.6,0.1-1,0.2-1.2,0.2v31.6H114V150z"/>
	<path id="XMLID_129_" class="st0" d="M176,150c1.5-0.4,3.6-0.8,6.1-1.2c2.5-0.4,5.4-0.6,8.7-0.6c2.4,0,4.4,0.3,6,1
		c1.6,0.6,3,1.6,4.1,2.8c0.3-0.2,0.9-0.6,1.6-1c0.7-0.4,1.6-0.9,2.7-1.3c1.1-0.4,2.2-0.8,3.5-1.1c1.3-0.3,2.7-0.5,4.2-0.5
		c2.9,0,5.2,0.4,7.1,1.3c1.8,0.8,3.3,2,4.3,3.6c1,1.5,1.7,3.4,2.1,5.5c0.4,2.1,0.5,4.4,0.5,6.9v21h-6.7v-19.6c0-2.2-0.1-4.1-0.3-5.7
		s-0.6-2.9-1.2-4c-0.6-1.1-1.4-1.8-2.4-2.3c-1-0.5-2.4-0.8-4-0.8c-2.3,0-4.1,0.3-5.6,0.9c-1.5,0.6-2.5,1.1-3,1.6
		c0.4,1.2,0.7,2.6,0.9,4.1c0.2,1.5,0.3,3,0.3,4.7v21h-6.7v-19.6c0-2.2-0.1-4.1-0.4-5.7c-0.2-1.6-0.7-2.9-1.3-4
		c-0.6-1.1-1.4-1.8-2.4-2.3c-1-0.5-2.3-0.8-3.9-0.8c-0.7,0-1.4,0-2.2,0.1c-0.8,0-1.5,0.1-2.2,0.2c-0.7,0.1-1.3,0.2-1.9,0.3
		c-0.6,0.1-1,0.2-1.2,0.2v31.6H176V150z"/>
	<path id="XMLID_131_" class="st0" d="M267.8,185.3c-1.5,0.4-3.6,0.8-6.1,1.2c-2.5,0.4-5.4,0.6-8.7,0.6c-2.9,0-5.3-0.4-7.3-1.3
		c-2-0.8-3.6-2-4.8-3.6c-1.2-1.5-2.1-3.3-2.6-5.4c-0.5-2.1-0.8-4.4-0.8-6.9v-21h6.7v19.6c0,4.6,0.7,7.8,2.2,9.8c1.4,2,3.9,3,7.3,3
		c0.7,0,1.5,0,2.2-0.1c0.8,0,1.5-0.1,2.2-0.2c0.7-0.1,1.3-0.1,1.8-0.2c0.6-0.1,0.9-0.2,1.2-0.3V149h6.7V185.3z"/>
	<path id="XMLID_133_" class="st0" d="M279.3,150c1.5-0.4,3.6-0.8,6.1-1.2c2.5-0.4,5.5-0.6,8.8-0.6c3,0,5.4,0.4,7.4,1.3
		c2,0.8,3.5,2,4.7,3.5c1.2,1.5,2,3.3,2.5,5.4c0.5,2.1,0.7,4.4,0.7,7v21h-6.7v-19.6c0-2.3-0.2-4.3-0.5-5.9c-0.3-1.6-0.8-3-1.5-4
		c-0.7-1-1.7-1.7-2.9-2.2c-1.2-0.5-2.7-0.7-4.5-0.7c-0.7,0-1.5,0-2.2,0.1c-0.8,0-1.5,0.1-2.2,0.2c-0.7,0.1-1.3,0.2-1.9,0.3
		c-0.6,0.1-0.9,0.2-1.2,0.2v31.6h-6.7V150z"/>
	<path id="XMLID_135_" class="st0" d="M324,142.2c-1.2,0-2.2-0.4-3.1-1.2s-1.3-1.9-1.3-3.2c0-1.3,0.4-2.4,1.3-3.2s1.9-1.2,3.1-1.2
		c1.2,0,2.2,0.4,3.1,1.2s1.3,1.9,1.3,3.2c0,1.3-0.4,2.4-1.3,3.2S325.2,142.2,324,142.2z M327.4,186.4h-6.7V149h6.7V186.4z"/>
	<path id="XMLID_138_" class="st0" d="M355.1,187.3c-3,0-5.7-0.5-8-1.4c-2.3-1-4.2-2.3-5.8-4c-1.6-1.7-2.7-3.8-3.5-6.2
		c-0.8-2.4-1.2-5-1.2-7.9s0.4-5.5,1.3-7.9c0.8-2.4,2-4.5,3.6-6.2c1.5-1.8,3.4-3.1,5.7-4.1c2.2-1,4.7-1.5,7.5-1.5
		c1.7,0,3.4,0.1,5,0.4c1.7,0.3,3.3,0.7,4.8,1.4l-1.5,5.7c-1-0.5-2.2-0.9-3.5-1.2c-1.3-0.3-2.7-0.4-4.2-0.4c-3.7,0-6.6,1.2-8.6,3.5
		c-2,2.4-3,5.8-3,10.3c0,2,0.2,3.9,0.7,5.5c0.5,1.7,1.2,3.1,2.2,4.3c1,1.2,2.2,2.1,3.8,2.8c1.5,0.6,3.4,1,5.6,1
		c1.8,0,3.4-0.2,4.8-0.5c1.4-0.3,2.6-0.7,3.4-1.1l0.9,5.6c-0.4,0.2-0.9,0.5-1.7,0.7s-1.5,0.4-2.4,0.6c-0.9,0.2-1.9,0.3-2.9,0.4
		C357.1,187.2,356.1,187.3,355.1,187.3z"/>
	<path id="XMLID_140_" class="st0" d="M384.5,148c2.7,0,5,0.3,6.8,1c1.8,0.7,3.3,1.7,4.5,3c1.1,1.3,1.9,2.8,2.4,4.5
		c0.5,1.8,0.7,3.7,0.7,5.8v23.4c-0.6,0.1-1.4,0.2-2.4,0.4c-1,0.2-2.2,0.3-3.5,0.5c-1.3,0.1-2.7,0.3-4.2,0.4c-1.5,0.1-3,0.2-4.5,0.2
		c-2.1,0-4.1-0.2-5.8-0.6c-1.8-0.4-3.3-1.1-4.6-2.1c-1.3-0.9-2.3-2.2-3-3.7c-0.7-1.5-1.1-3.4-1.1-5.5c0-2.1,0.4-3.8,1.3-5.3
		c0.8-1.5,2-2.7,3.4-3.6c1.4-0.9,3.1-1.6,5-2c1.9-0.4,3.9-0.6,6-0.6c0.7,0,1.4,0,2.1,0.1c0.7,0.1,1.4,0.2,2.1,0.3
		c0.6,0.1,1.2,0.2,1.7,0.3c0.5,0.1,0.8,0.2,1,0.2v-1.9c0-1.1-0.1-2.2-0.4-3.3s-0.7-2-1.3-2.9c-0.6-0.8-1.5-1.5-2.6-2
		s-2.5-0.8-4.2-0.8c-2.2,0-4.1,0.2-5.8,0.5c-1.7,0.3-2.9,0.6-3.7,1l-0.8-5.5c0.9-0.4,2.3-0.8,4.3-1.1
		C379.9,148.2,382.1,148,384.5,148z M385,181.6c1.6,0,3,0,4.2-0.1c1.2-0.1,2.2-0.2,3.1-0.4v-11.2c-0.5-0.2-1.3-0.4-2.3-0.6
		c-1.1-0.2-2.4-0.3-3.9-0.3c-1,0-2.1,0.1-3.2,0.2c-1.1,0.1-2.2,0.4-3.1,0.9c-0.9,0.5-1.7,1.1-2.3,1.9c-0.6,0.8-0.9,1.8-0.9,3.1
		c0,2.4,0.8,4.1,2.3,5C380.3,181.1,382.4,181.6,385,181.6z"/>
	<path id="XMLID_143_" class="st0" d="M416.2,149h14.2v5.6h-14.2v17.3c0,1.9,0.1,3.4,0.4,4.6c0.3,1.2,0.7,2.2,1.3,2.9
		c0.6,0.7,1.3,1.2,2.2,1.5s1.9,0.4,3,0.4c2,0,3.6-0.2,4.9-0.7s2.1-0.8,2.6-1l1.3,5.5c-0.7,0.3-1.8,0.8-3.5,1.3
		c-1.7,0.5-3.6,0.8-5.8,0.8c-2.5,0-4.6-0.3-6.3-1c-1.7-0.6-3-1.6-4-2.9c-1-1.3-1.7-2.9-2.1-4.8c-0.4-1.9-0.6-4.1-0.6-6.6v-33.4
		l6.7-1.2V149z"/>
	<path id="XMLID_145_" class="st0" d="M442.2,142.2c-1.2,0-2.2-0.4-3.1-1.2s-1.3-1.9-1.3-3.2c0-1.3,0.4-2.4,1.3-3.2s1.9-1.2,3.1-1.2
		c1.2,0,2.2,0.4,3.1,1.2s1.3,1.9,1.3,3.2c0,1.3-0.4,2.4-1.3,3.2S443.4,142.2,442.2,142.2z M445.6,186.4h-6.7V149h6.7V186.4z"/>
	<path id="XMLID_148_" class="st0" d="M490.1,167.7c0,3-0.4,5.7-1.3,8.1c-0.9,2.4-2.1,4.5-3.6,6.2c-1.6,1.7-3.4,3.1-5.6,4
		c-2.2,0.9-4.5,1.4-7.1,1.4c-2.5,0-4.9-0.5-7.1-1.4c-2.2-0.9-4-2.3-5.6-4c-1.6-1.7-2.8-3.8-3.6-6.2c-0.9-2.4-1.3-5.1-1.3-8.1
		c0-2.9,0.4-5.6,1.3-8s2.1-4.5,3.6-6.2c1.6-1.7,3.4-3.1,5.6-4c2.2-0.9,4.5-1.4,7.1-1.4c2.5,0,4.9,0.5,7.1,1.4c2.2,0.9,4,2.3,5.6,4
		c1.6,1.7,2.8,3.8,3.6,6.2C489.7,162.1,490.1,164.8,490.1,167.7z M483.2,167.7c0-4.2-0.9-7.6-2.8-10c-1.9-2.5-4.5-3.7-7.7-3.7
		c-3.3,0-5.8,1.2-7.7,3.7c-1.9,2.5-2.8,5.8-2.8,10c0,4.2,0.9,7.6,2.8,10c1.9,2.5,4.5,3.7,7.7,3.7c3.3,0,5.8-1.2,7.7-3.7
		C482.2,175.3,483.2,171.9,483.2,167.7z"/>
	<path id="XMLID_151_" class="st0" d="M499.6,150c1.5-0.4,3.6-0.8,6.1-1.2c2.5-0.4,5.5-0.6,8.8-0.6c3,0,5.4,0.4,7.4,1.3
		c2,0.8,3.5,2,4.7,3.5c1.2,1.5,2,3.3,2.5,5.4c0.5,2.1,0.7,4.4,0.7,7v21h-6.7v-19.6c0-2.3-0.2-4.3-0.5-5.9c-0.3-1.6-0.8-3-1.5-4
		s-1.7-1.7-2.9-2.2c-1.2-0.5-2.7-0.7-4.5-0.7c-0.7,0-1.5,0-2.2,0.1c-0.8,0-1.5,0.1-2.2,0.2c-0.7,0.1-1.3,0.2-1.9,0.3
		c-0.6,0.1-0.9,0.2-1.2,0.2v31.6h-6.7V150z"/>
	<path id="XMLID_153_" class="st0" d="M591.3,136.5v6h-15.7v43.8h-7v-43.8h-15.7v-6H591.3z"/>
	<path id="XMLID_155_" class="st0" d="M592.2,167.8c0-3.3,0.5-6.2,1.4-8.7c1-2.5,2.2-4.5,3.8-6.2c1.6-1.6,3.4-2.9,5.5-3.7
		c2.1-0.8,4.2-1.2,6.3-1.2c5,0,8.9,1.6,11.6,4.7c2.7,3.1,4,7.9,4,14.4c0,0.3,0,0.7,0,1.1c0,0.5,0,0.9-0.1,1.3h-25.6
		c0.3,3.9,1.4,6.8,3.4,8.9c2,2,5,3,9.2,3c2.4,0,4.3-0.2,5.9-0.6c1.6-0.4,2.8-0.8,3.6-1.2l0.9,5.6c-0.8,0.4-2.2,0.9-4.3,1.4
		c-2,0.5-4.4,0.7-6.9,0.7c-3.3,0-6.1-0.5-8.5-1.5s-4.3-2.3-5.9-4.1c-1.5-1.7-2.7-3.8-3.4-6.2C592.5,173.2,592.2,170.6,592.2,167.8z
		 M617.9,164.1c0-3-0.7-5.5-2.3-7.5c-1.6-1.9-3.7-2.9-6.4-2.9c-1.5,0-2.9,0.3-4.1,0.9c-1.2,0.6-2.2,1.4-3,2.3
		c-0.8,1-1.5,2.1-1.9,3.3c-0.5,1.2-0.8,2.5-0.9,3.8H617.9z"/>
	<path id="XMLID_158_" class="st0" d="M650.8,187.3c-3,0-5.7-0.5-8-1.4c-2.3-1-4.2-2.3-5.8-4c-1.6-1.7-2.7-3.8-3.5-6.2
		c-0.8-2.4-1.2-5-1.2-7.9s0.4-5.5,1.3-7.9c0.8-2.4,2-4.5,3.6-6.2c1.5-1.8,3.4-3.1,5.7-4.1c2.2-1,4.7-1.5,7.5-1.5
		c1.7,0,3.4,0.1,5,0.4c1.7,0.3,3.3,0.7,4.8,1.4l-1.5,5.7c-1-0.5-2.2-0.9-3.5-1.2c-1.3-0.3-2.7-0.4-4.2-0.4c-3.7,0-6.6,1.2-8.6,3.5
		c-2,2.4-3,5.8-3,10.3c0,2,0.2,3.9,0.7,5.5c0.5,1.7,1.2,3.1,2.2,4.3c1,1.2,2.2,2.1,3.8,2.8c1.5,0.6,3.4,1,5.6,1
		c1.8,0,3.4-0.2,4.8-0.5c1.4-0.3,2.6-0.7,3.4-1.1l0.9,5.6c-0.4,0.2-0.9,0.5-1.7,0.7s-1.5,0.4-2.4,0.6c-0.9,0.2-1.9,0.3-2.9,0.4
		C652.7,187.2,651.7,187.3,650.8,187.3z"/>
	<path id="XMLID_160_" class="st0" d="M668,186.4v-54.7l6.7-1.2v19.2c1.2-0.5,2.6-0.9,4-1.1c1.4-0.3,2.8-0.4,4.2-0.4
		c3,0,5.4,0.4,7.4,1.3c2,0.8,3.5,2,4.7,3.5c1.2,1.5,2,3.3,2.5,5.4c0.5,2.1,0.7,4.4,0.7,7v21h-6.7v-19.6c0-2.3-0.2-4.3-0.5-5.9
		c-0.3-1.6-0.8-3-1.5-4s-1.7-1.7-2.9-2.2c-1.2-0.5-2.7-0.7-4.5-0.7c-0.7,0-1.5,0-2.2,0.1c-0.8,0.1-1.5,0.2-2.2,0.3
		c-0.7,0.1-1.3,0.3-1.9,0.4c-0.6,0.1-0.9,0.3-1.2,0.4v31.1H668z"/>
	<path id="XMLID_162_" class="st0" d="M709.1,150c1.5-0.4,3.6-0.8,6.1-1.2c2.5-0.4,5.5-0.6,8.8-0.6c3,0,5.4,0.4,7.4,1.3
		c2,0.8,3.5,2,4.7,3.5c1.2,1.5,2,3.3,2.5,5.4c0.5,2.1,0.7,4.4,0.7,7v21h-6.7v-19.6c0-2.3-0.2-4.3-0.5-5.9c-0.3-1.6-0.8-3-1.5-4
		s-1.7-1.7-2.9-2.2c-1.2-0.5-2.7-0.7-4.5-0.7c-0.7,0-1.5,0-2.2,0.1c-0.8,0-1.5,0.1-2.2,0.2c-0.7,0.1-1.3,0.2-1.9,0.3
		c-0.6,0.1-0.9,0.2-1.2,0.2v31.6h-6.7V150z"/>
	<path id="XMLID_164_" class="st0" d="M783.5,167.7c0,3-0.4,5.7-1.3,8.1c-0.9,2.4-2.1,4.5-3.6,6.2c-1.6,1.7-3.4,3.1-5.6,4
		c-2.2,0.9-4.5,1.4-7.1,1.4c-2.5,0-4.9-0.5-7.1-1.4c-2.2-0.9-4-2.3-5.6-4c-1.6-1.7-2.8-3.8-3.6-6.2c-0.9-2.4-1.3-5.1-1.3-8.1
		c0-2.9,0.4-5.6,1.3-8s2.1-4.5,3.6-6.2c1.6-1.7,3.4-3.1,5.6-4c2.2-0.9,4.5-1.4,7.1-1.4c2.5,0,4.9,0.5,7.1,1.4c2.2,0.9,4,2.3,5.6,4
		c1.6,1.7,2.8,3.8,3.6,6.2C783,162.1,783.5,164.8,783.5,167.7z M776.5,167.7c0-4.2-0.9-7.6-2.8-10c-1.9-2.5-4.5-3.7-7.7-3.7
		c-3.3,0-5.8,1.2-7.7,3.7c-1.9,2.5-2.8,5.8-2.8,10c0,4.2,0.9,7.6,2.8,10c1.9,2.5,4.5,3.7,7.7,3.7c3.3,0,5.8-1.2,7.7-3.7
		C775.5,175.3,776.5,171.9,776.5,167.7z"/>
	<path id="XMLID_167_" class="st0" d="M804.1,187.1c-4.1-0.1-7.1-1-8.8-2.7c-1.7-1.7-2.6-4.3-2.6-7.8v-44.9l6.7-1.2v45
		c0,1.1,0.1,2,0.3,2.7c0.2,0.7,0.5,1.3,0.9,1.7c0.4,0.4,1,0.8,1.7,1c0.7,0.2,1.6,0.4,2.7,0.5L804.1,187.1z"/>
	<path id="XMLID_169_" class="st0" d="M845.6,167.7c0,3-0.4,5.7-1.3,8.1c-0.9,2.4-2.1,4.5-3.6,6.2c-1.6,1.7-3.4,3.1-5.6,4
		c-2.2,0.9-4.5,1.4-7.1,1.4c-2.5,0-4.9-0.5-7.1-1.4c-2.2-0.9-4-2.3-5.6-4c-1.6-1.7-2.8-3.8-3.6-6.2c-0.9-2.4-1.3-5.1-1.3-8.1
		c0-2.9,0.4-5.6,1.3-8s2.1-4.5,3.6-6.2c1.6-1.7,3.4-3.1,5.6-4c2.2-0.9,4.5-1.4,7.1-1.4c2.5,0,4.9,0.5,7.1,1.4c2.2,0.9,4,2.3,5.6,4
		c1.6,1.7,2.8,3.8,3.6,6.2C845.2,162.1,845.6,164.8,845.6,167.7z M838.6,167.7c0-4.2-0.9-7.6-2.8-10c-1.9-2.5-4.5-3.7-7.7-3.7
		c-3.3,0-5.8,1.2-7.7,3.7c-1.9,2.5-2.8,5.8-2.8,10c0,4.2,0.9,7.6,2.8,10c1.9,2.5,4.5,3.7,7.7,3.7c3.3,0,5.8-1.2,7.7-3.7
		C837.7,175.3,838.6,171.9,838.6,167.7z"/>
	<path id="XMLID_172_" class="st0" d="M878.5,182.7c-0.6,0.4-1.7,0.9-3.3,1.5c-1.7,0.6-3.6,0.9-5.8,0.9c-2.3,0-4.4-0.4-6.4-1.1
		c-2-0.7-3.7-1.8-5.2-3.3c-1.5-1.5-2.7-3.4-3.5-5.7c-0.9-2.3-1.3-4.9-1.3-8.1c0-2.7,0.4-5.2,1.2-7.5c0.8-2.3,2-4.2,3.6-5.9
		c1.6-1.7,3.5-3,5.7-3.9c2.3-0.9,4.8-1.4,7.6-1.4c3.1,0,5.8,0.2,8.2,0.7c2.3,0.5,4.3,0.9,5.9,1.3v33.4c0,5.8-1.5,9.9-4.5,12.5
		c-3,2.6-7.5,3.9-13.5,3.9c-2.4,0-4.6-0.2-6.7-0.6c-2.1-0.4-3.9-0.8-5.4-1.4l1.2-5.8c1.3,0.5,3,1,4.9,1.4c1.9,0.4,4,0.6,6.1,0.6
		c4,0,6.9-0.8,8.6-2.4s2.6-4.1,2.6-7.6V182.7z M878.4,154.9c-0.7-0.2-1.6-0.4-2.7-0.5c-1.1-0.2-2.7-0.3-4.6-0.3
		c-3.6,0-6.4,1.2-8.3,3.5c-1.9,2.4-2.9,5.5-2.9,9.4c0,2.2,0.3,4,0.8,5.5c0.6,1.5,1.3,2.8,2.2,3.8c0.9,1,2,1.8,3.2,2.2
		c1.2,0.5,2.5,0.7,3.8,0.7c1.8,0,3.4-0.3,4.9-0.8c1.5-0.5,2.7-1.1,3.5-1.8V154.9z"/>
	<path id="XMLID_175_" class="st0" d="M892.3,193.4c0.5,0.2,1.2,0.5,2.1,0.7c0.8,0.2,1.7,0.3,2.5,0.3c2.6,0,4.7-0.6,6.2-1.8
		c1.5-1.2,2.8-3.1,4-5.7c-3-5.8-5.8-11.9-8.5-18.3c-2.6-6.5-4.8-13-6.5-19.6h7.2c0.5,2.2,1.2,4.5,1.9,7c0.7,2.5,1.6,5.1,2.5,7.7
		c0.9,2.6,1.9,5.3,3,7.9c1.1,2.6,2.2,5.2,3.3,7.6c1.8-5,3.4-10,4.8-15c1.3-4.9,2.6-10,3.8-15.3h6.9c-1.7,7.1-3.6,13.8-5.8,20.3
		c-2.1,6.5-4.4,12.6-6.8,18.3c-1,2.2-2,4-3,5.6c-1,1.6-2.2,2.8-3.4,3.9c-1.2,1-2.7,1.8-4.2,2.2c-1.6,0.5-3.3,0.7-5.3,0.7
		c-0.5,0-1.1,0-1.7-0.1s-1.1-0.2-1.7-0.3c-0.6-0.1-1.1-0.3-1.5-0.4c-0.5-0.1-0.8-0.3-1-0.4L892.3,193.4z"/>
</g>
<g id="XMLID_67_">
</g>
<g id="XMLID_177_">
</g>
<g id="XMLID_178_">
</g>
<g id="XMLID_179_">
</g>
<g id="XMLID_180_">
</g>
<g id="XMLID_181_">
</g>
<g id="XMLID_182_">
</g>
<g id="XMLID_183_">
</g>
<g id="XMLID_184_">
</g>
<g id="XMLID_185_">
</g>
<g id="XMLID_186_">
</g>
<g id="XMLID_187_">
</g>
<g id="XMLID_188_">
</g>
<g id="XMLID_189_">
</g>
<g id="XMLID_190_">
</g>
</svg>
